<svg width="13" height="12" viewBox="0 0 13 12" fill="none" xmlns="http://www.w3.org/2000/svg">
<path fill-rule="evenodd" clip-rule="evenodd" d="M3.2926 1.53945C3.2926 1.95686 3.12342 2.33976 2.85286 2.61771L2.84168 2.6289C2.56375 2.90685 2.17731 3.07891 1.75232 3.07891C1.32757 3.07891 0.940897 2.9059 0.662966 2.6289C0.385035 2.35094 0.21228 1.96424 0.21228 1.53945C0.21228 1.11467 0.385035 0.727962 0.662966 0.450009C0.940897 0.172055 1.32757 0 1.75232 0C2.17731 0 2.56375 0.173007 2.84168 0.450009C3.11961 0.727962 3.2926 1.11562 3.2926 1.53945Z" fill="#414665"/>
<mask id="mask0" mask-type="alpha" maskUnits="userSpaceOnUse" x="4" y="3" width="9" height="9">
<path fill-rule="evenodd" clip-rule="evenodd" d="M4.47876 3.87891H12.2122V11.9998H4.47876V3.87891Z" fill="white"/>
</mask>
<g mask="url(#mask0)">
<path fill-rule="evenodd" clip-rule="evenodd" d="M12.2122 7.55633V11.8194C12.2122 11.917 12.1342 11.9998 12.0319 11.9998H9.70349C9.60212 11.9998 9.51931 11.917 9.51931 11.8194V8.0406C9.51931 7.60559 9.49694 7.11298 9.33157 6.74483C9.18094 6.40263 8.89564 6.15823 8.36667 6.15823C7.81842 6.15823 7.50694 6.36836 7.33419 6.68058C7.15002 7.02184 7.10552 7.49136 7.10552 7.97278V11.8184C7.10552 11.916 7.02271 11.9988 6.92515 11.9988L4.65913 11.9998C4.56157 11.9998 4.47876 11.917 4.47876 11.8194L4.47971 4.05929C4.47971 3.96172 4.56252 3.87891 4.66008 3.87891H6.82664C6.9242 3.87891 7.00701 3.96172 7.00701 4.05929V4.60782C7.17905 4.43481 7.39368 4.28894 7.64567 4.17185C8.0471 3.98409 8.55084 3.87891 9.14025 3.87891C10.1803 3.87891 10.883 4.12711 11.3525 4.5707C11.8255 5.01785 12.0542 5.64896 12.1518 6.42238C12.1741 6.59158 12.1899 6.77553 12.1975 6.97091C12.2084 7.16605 12.2122 7.36119 12.2122 7.55633Z" fill="#414665"/>
</g>
<mask id="mask1" mask-type="alpha" maskUnits="userSpaceOnUse" x="0" y="3" width="4" height="9">
<path fill-rule="evenodd" clip-rule="evenodd" d="M0.212891 3.87891H3.2925V11.9997H0.212891V3.87891Z" fill="white"/>
</mask>
<g mask="url(#mask1)">
<path fill-rule="evenodd" clip-rule="evenodd" d="M3.2925 4.05929V11.8194C3.2925 11.917 3.20969 11.9998 3.10856 11.9998H0.397067C0.295699 11.9998 0.212891 11.917 0.212891 11.8194V4.05929C0.212891 3.96172 0.295699 3.87891 0.397067 3.87891H3.10856C3.20969 3.87891 3.2925 3.96172 3.2925 4.05929Z" fill="#414665"/>
</g>
</svg>
