<svg width="21" height="22" viewBox="0 0 21 22" fill="none" xmlns="http://www.w3.org/2000/svg">
<path fill-rule="evenodd" clip-rule="evenodd" d="M14.7888 14.2057L19.9486 19.3673C20.3506 19.7686 20.3515 20.4183 19.945 20.824C19.5421 21.2278 18.8827 21.2216 18.4887 20.8275L13.328 15.6667C10.0869 18.1895 5.3995 17.9614 2.4201 14.9815C-0.806701 11.754 -0.806701 6.52213 2.4201 3.29559C5.646 0.0681373 10.8769 0.0681373 14.1037 3.29559C17.0828 6.27535 17.3109 10.9639 14.7888 14.2057L14.7888 14.2057ZM12.6282 13.503C15.0763 11.0559 15.0763 7.08682 12.6282 4.63874C10.181 2.19158 6.21199 2.19158 3.76391 4.63874C1.31675 7.08682 1.31675 11.0559 3.76391 13.503C6.21199 15.9511 10.181 15.9511 12.6282 13.503Z" fill="#414665"/>
</svg>
